<?xml version="1.0" standalone="no"?>
<!DOCTYPE svg PUBLIC "-//W3C//DTD SVG 20010904//EN"
 "http://www.w3.org/TR/2001/REC-SVG-20010904/DTD/svg10.dtd">
<svg version="1.0" xmlns="http://www.w3.org/2000/svg"
 width="92.000000pt" height="92.000000pt" viewBox="0 0 92.000000 92.000000"
 preserveAspectRatio="xMidYMid meet">

<g transform="translate(0.000000,92.000000) scale(0.100000,-0.100000)"
fill="#000000" stroke="none">
<path d="M528 898 c-9 -7 -22 -25 -27 -40 -9 -25 -16 -28 -55 -28 -40 0 -46 3
-65 35 -16 28 -27 35 -51 35 -34 0 -99 -30 -119 -54 -13 -15 -11 -53 2 -86 4
-9 -6 -28 -24 -48 -28 -31 -32 -33 -64 -22 -45 15 -71 1 -96 -53 -33 -73 -21
-115 38 -138 19 -7 23 -16 23 -53 0 -40 -3 -47 -30 -61 -49 -25 -52 -79 -7
-146 25 -37 61 -48 97 -29 17 9 26 6 54 -16 33 -26 34 -30 29 -80 -6 -58 2
-68 78 -94 52 -18 87 -6 105 35 13 33 17 35 59 35 39 0 46 -3 60 -30 25 -49
79 -52 146 -7 36 24 49 69 31 104 -8 14 -4 25 18 49 25 29 31 31 78 26 49 -4
52 -3 71 29 45 73 39 131 -15 156 -31 15 -34 21 -34 60 0 37 4 44 30 58 17 9
33 27 36 41 8 31 -12 96 -38 124 -20 21 -67 27 -97 10 -14 -7 -25 -2 -49 23
-28 29 -31 37 -23 64 11 39 -5 73 -43 92 -42 20 -98 25 -118 9z m-3 -229 c56
-16 129 -91 145 -149 37 -135 -71 -276 -210 -274 -189 2 -284 216 -159 358 59
66 137 89 224 65z"/>
<path d="M370 460 l0 -150 63 0 c58 0 66 3 95 33 26 26 32 41 32 75 0 35 -3
42 -20 42 -11 0 -20 4 -20 8 0 5 9 17 20 27 30 27 25 56 -14 88 -30 23 -44 27
-95 27 l-61 0 0 -150z m108 52 c3 -17 -2 -22 -17 -22 -14 0 -21 6 -21 18 0 38
33 41 38 4z m2 -102 c0 -32 -26 -43 -36 -15 -9 21 3 45 21 45 10 0 15 -10 15
-30z"/>
</g>
</svg>
